<svg xmlns="http://www.w3.org/2000/svg" width="32" height="32" fill="none">
    <style>
    .cls-1{fill:#fff;}
    .cls-2{fill:#69849c;}
    </style>
<path
class="cls-2"
d="m8.67,12.28h1.13s.03-.68.03-.68c0,0-.3-.28-.28-.33s.22-.29.25-.21.05.49.05.49h1.38s0,.31-.04.39-.23.27-.28.33.16.19.16.19l.64-.04s-.03-.83.02-.86.43,0,.5,0,.33-.11.26.3-.11.48,0,.53,1.33-.02,1.33-.02c0,0,.28-.16-.02-.58s-.63-.59-.78-.88-.57-.99-.65-1.31-.31-.81-.21-.9.58-.3.73.14.42.93.58,1.28.28.46.46.7.27.42.27.64.17.48.26.66.52.3.78.27.55-.09.55-.09c0,0-.03-.57-.17-.86s-.35-1.06-.36-1.23-.06-1.4-.05-1.52-.11-.32.26-.46.45-.61.48-.65.6-.21.61-.09-.33.6-.52.88-.36.62-.23.92.43.85.55,1,.25.45.31.57.33.48.51.2.1-.69.55-.78,1.01-.21.97-.58-.14-.77-.46-1.07-.62-.59-.62-.84.03-.77-.03-.88-.2-.73-.72-.3-.75.54-.94.5-.44-.62-.47-.82-.01-.73-.19-.92-.36.16-.43-.46.33-.47.32-.92-.02-2.13.02-2.32-.06-.65.18-.72.47-.12.6.29-.11.67-.19.84-.22,1.05-.13,1.15.38.04.29.36-.38.55-.38.81.31,1.43.68,1.62.74.46.75.17-.03-.91.07-1,.42.12.5.3.43.41.44.2.19-.93.02-1.32-.17-.74-.1-.84.51.33.68.7,1.41,1.62,1.54,1.53.16-.27.04-.57-.5-.77.04-.53,1.07.33,1.28.28.81.14.67-.25-.83-.84-1.38-.9-.91.29-1.38-.05-3.59-3.79-3.62-3.79-1.39.01-1.39.01L5.33,8.64s-.8.42-.94.33-.25.77-.27.94-.29.44-.57-.01-.41-.7-.61-.68-.78-.02-.78-.02C2.17,9.2.02,11.64.02,11.78s-.02.64-.02.64c0,0,2.19.03,2.25-.03s.11-1.08.16-1.17.35-.17.41.07,0,.75.2.99.95.14.95.14c0,0-.07-.21-.06-.54s-.12-.45-.13-.58.6-.19.6-.19c0,0-.03-.15.1-.35s.59-.39.51-.12-.34.34-.38.6.09.63.09.63c0,0,.11.38.19.44s1.08.03,1.08.03l.03-.78s.31.09.5.04.31-.5.33-.74.13-.17.54-.32.31-.53.33-.79.09-.5.5-.25.43.59.35.92-.02,1.74-.02,1.74l.14.12Z"/><path class="cls-2" d="m17.78,12.37c.22.02,1.88.01,1.88.01,0,0-.82-1.26-.86-1.3s-1.01,1.29-1.01,1.29Z"/><path class="cls-2" d="m20.15,12.41c.15,0,1.71.02,1.73-.04s-.3-.72-.38-.92.09-.68.2-.67.77.76.79.96.52.58.52.58l1.01-.04-.25-.62s.53.07-.01-.04-.74-.39-.77-.46-1.22-1.38-1.22-1.38c0,0-.22-.53-.14-.6s.36-.23.49-.38-.2-.16.27-.38,1.01.32,1.21.58.98.76,1.2.93.18.43.64.43.8-.13.92.18.06.8.04.89-.5.42-.57.59-.32.45-.12.45h1.73s-.04-.78-.14-.91-.17-.41-.09-.57.76.49.91.59,1.12.85,1.12.85h.73s-.03-.54-.1-.6-5.58-5.62-5.58-5.62c0,0-.23-.06-.32.17s-.26.55-.26.55c0,0-.95-1.09-1.27-1.11s-.9.38-.9.38c0,0-.58,1.05-.61,1.1s.19.62.47.78-.09.83-.09.83l-.99.06s-.61.57-.74.66-.35.44-.29.63.12.54.27.33.89-.67.98-.74.52-.05.55-.03.34-.15.14.32-1.01,1.8-1.11,1.89,0,.38,0,.38Z"/><path class="cls-1" d="m1.2,11.83l.34-.26.32-.12.06-.77s.14-.36.1-.36-.53.56-.56.62-.26.88-.26.88Z"/><path class="cls-1" d="m5.57,10.24s-.04-.06-.06-.26.14-.56.14-.56c0,0,.24.08.24.29s.05.36-.03.4-.29.14-.29.14Z"/><path class="cls-1" d="m7.35,7.48s.54,0,.58.06,0,.5.14.53.64-.06.7-.09.42-.28.24-.47-.48-.3-.45-.43-.06-.38.23-.38.42.17.43.42.18.22.26.18.67-.58.69-.74.17-.7.08-.77-.21,0-.37.18-.49.33-.62.22.23-.6-.36-.26-1.28,1.01-1.3,1.14-.26.41-.26.41Z"/><path class="cls-1" d="m9.43,11.25s-.3-1-.06-1.41.78-.46,1.02-.53.78-.06.58.3-.63.77-.68.82-.77,1.05-.85.82Z"/><path class="cls-1" d="m11.71,3.23c-.05.06-.98,1.33-1.31,1.56s-1.29.98-.33.74,1.27-1.39,1.45-1.58.57-.64.49-.7-.3-.02-.3-.02Z"/><path class="cls-1" d="m12.83,3.78c-.1.23-.41.18-.54.34s-.02.42-.02.42c0,0,.7.19.74-.1s-.1-.36.06-.4.71-.06.73-.21.14-.56-.06-.62-.9.56-.9.56Z"/>
<path
class="cls-1"
d="m13.77,7.18c.28.5.43.82.7,1.02s.2.66.44.16.1-.75.02-.92-.1-.54-.37-.38-.65-.05-.67-.12-.13.24-.13.24Z"
/></svg>
</svg>
