<svg xmlns="http://www.w3.org/2000/svg" width="32" height="32" fill="none">
    <style>
    .cls-1{fill:#fff;}
    .cls-2{fill:#69849c;}
    </style>
<path xmlns="http://www.w3.org/2000/svg" class="cls-1" d="m8.92,20.56s-.05-1.41.02-1.74.06-.66-.35-.92-.48-.01-.5.25.09.64-.33.79-.52.09-.54.32-.14.69-.33.74-.5-.04-.5-.04l-.03.78s-.99.02-1.08-.03-.19-.44-.19-.44c0,0-.13-.37-.09-.63s.31-.32.38-.6-.38-.09-.51.12-.1.35-.1.35c0,0-.61.06-.6.19s.14.25.13.58.06.54.06.54c0,0-.75.11-.95-.14s-.15-.75-.2-.99-.35-.17-.41-.07-.1,1.11-.16,1.17-2.25.03-2.25.03c0,0,.02-.5.02-.64s2.15-2.58,2.15-2.58c0,0,.58.04.78.02s.33.23.61.68.54.18.57.01.13-1.02.27-.94.94-.33.94-.33l9.07-8.63s1.36-.01,1.39-.01,3.15,3.45,3.62,3.79.83,0,1.38.05,1.24.51,1.38.9-.46.19-.67.25-.74-.04-1.28-.28-.16.23-.04.53.09.47-.04.57-1.37-1.15-1.54-1.53-.61-.81-.68-.7-.07.45.1.84-.01,1.12-.02,1.32-.35-.02-.44-.2-.39-.39-.5-.3-.06.72-.07,1-.37.02-.75-.17-.68-1.37-.68-1.62.29-.49.38-.81-.19-.26-.29-.36.04-.98.13-1.15.32-.44.19-.84-.35-.35-.6-.29-.14.53-.18.72-.03,1.87-.02,2.32-.38.3-.32.92.25.27.43.46.16.72.19.92.28.78.47.82.43-.07.94-.5.65.19.72.3.03.62.03.88.3.54.62.84.42.7.46,1.07-.51.49-.97.58-.37.5-.55.78-.45-.09-.51-.2-.18-.42-.31-.57-.43-.7-.55-1,.04-.64.23-.92.53-.75.52-.88-.58.04-.61.09-.12.51-.48.65-.25.34-.26.46.04,1.34.05,1.52.22.93.36,1.23.17.86.17.86c0,0-.3.05-.55.09s-.69-.09-.78-.27-.26-.44-.26-.66-.09-.39-.27-.64-.3-.35-.46-.7-.43-.84-.58-1.28-.63-.22-.73-.14.13.58.21.9.5,1.02.65,1.31.48.46.78.88.02.58.02.58c0,0-1.23.07-1.33.02s-.07-.13,0-.53-.18-.3-.26-.3-.45-.03-.5,0-.02.86-.02.86l-.64.04s-.2-.13-.16-.19.23-.25.28-.33.04-.39.04-.39h-1.38s-.03-.42-.05-.49-.22.16-.25.21.28.33.28.33l-.03.69h-1.13s-.14-.13-.14-.13Zm9.25.2c.22.02,1.88.01,1.88.01,0,0-.82-1.26-.86-1.3s-1.01,1.29-1.01,1.29Zm2.37.04c.15,0,1.71.02,1.73-.04s-.3-.72-.38-.92.09-.68.2-.67.77.76.79.96.52.58.52.58l1.01-.04-.25-.62s.53.07-.01-.04-.74-.39-.77-.46-1.22-1.38-1.22-1.38c0,0-.22-.53-.14-.6s.36-.23.49-.38-.2-.16.27-.38,1.01.32,1.21.58.98.76,1.2.93.18.43.64.43.8-.13.92.18.06.8.04.89-.5.42-.57.59-.32.45-.12.45h1.73s-.04-.78-.14-.91-.17-.41-.09-.57.76.49.91.59,1.12.85,1.12.85h.73s-.03-.54-.1-.6-5.58-5.62-5.58-5.62c0,0-.23-.06-.32.17s-.26.55-.26.55c0,0-.95-1.09-1.27-1.11s-.9.38-.9.38c0,0-.58,1.05-.61,1.1s.19.62.47.78-.09.83-.09.83l-.99.06s-.61.57-.74.66-.35.44-.29.63.12.54.27.33.89-.67.98-.74.52-.05.55-.03.34-.15.14.32-1.01,1.8-1.11,1.89,0,.38,0,.38Zm-18.95-.58l.34-.26.32-.12.06-.77s.14-.36.1-.36-.53.56-.56.62-.26.88-.26.88Zm4.66-1.73c.08-.04.03-.19.03-.4s-.24-.29-.24-.29c0,0-.17.36-.14.56s.06.26.06.26c0,0,.21-.1.29-.14Zm1.5-2.63s.54,0,.58.06,0,.5.14.53.64-.06.7-.09.42-.28.24-.47-.48-.3-.45-.43-.06-.38.23-.38.42.17.43.42.18.22.26.18.67-.58.69-.74.17-.7.08-.77-.21,0-.37.18-.49.33-.62.22.23-.6-.36-.26-1.28,1.01-1.3,1.14-.26.41-.26.41Zm2.93,2.95s.48-.46.68-.82-.34-.36-.58-.3-.78.12-1.02.53.06,1.41.06,1.41c.08.22.8-.78.85-.82Zm1.42-7.2c-.05.06-.98,1.33-1.31,1.56s-1.29.98-.33.74,1.27-1.39,1.45-1.58.57-.64.49-.7-.3-.02-.3-.02Zm1.13.55c-.1.23-.41.18-.54.34s-.02.42-.02.42c0,0,.7.19.74-.1s-.1-.36.06-.4.71-.06.73-.21.14-.56-.06-.62-.9.56-.9.56Zm.94,3.4c.28.5.43.82.7,1.02s.2.66.44.16.1-.75.02-.92-.1-.54-.37-.38-.65-.05-.67-.12-.13.24-.13.24Z"/>
</svg>
