
        render() {
            return (
              <div>
                <Logo />
              </div>
            );
          }<svg xmlns="http://www.w3.org/2000/svg" viewBox="0 0 78.44 9.02">
  <defs>
    <style>
      .cls-1 {
        fill: #fff;
      }

      .cls-2 {
        fill: #69849c;
      }

      .cls-3 {
        fill: #68829d;
      }

      .cls-4 {
        fill: #231f20;
      }
    </style>
  </defs>
  <g id="Layer_2" data-name="Layer 2">
    <path d="m0,.17v8.85h2.23v-3.79l2.65,3.78h2.43l-3.14-4.56L7.32.18h-2.77l-2.33,3.64V.18s-2.18-.01-2.22-.01Z"/>
    <path class="cls-3" d="m5.11,3.15h1.76s.05-.02.05-.05v-1.07c0-.25.15-.48.38-.57,0,0,.01,0,.02,0,.36-.13.73.16.72.54v.25c-.01.35-.1.7-.27,1.01l-3.02,5.65s0,.07.04.07h4.82s.05-.02.05-.05v-1.82s-.02-.05-.05-.05h-1.9s-.06-.04-.04-.07l1.78-2.92c.2-.33.32-.7.35-1.09.04-.64.26-2.83-2.19-2.78-.8.02-1.46.45-1.9.87-.4.37-.63.89-.63,1.44v.61s.02.05.04.05Z"/>
    <g>
      <path class="cls-4" d="m12.68,7.66c.35.22.87.39,1.41.39.81,0,1.28-.42,1.28-1.03,0-.57-.33-.89-1.15-1.2-1-.35-1.61-.86-1.61-1.71,0-.94.79-1.64,1.98-1.64.63,0,1.08.14,1.35.3l-.22.64c-.2-.11-.61-.29-1.16-.29-.83,0-1.15.49-1.15.91,0,.57.37.84,1.21,1.17,1.03.39,1.56.89,1.56,1.78,0,.93-.7,1.74-2.14,1.74-.59,0-1.23-.17-1.56-.39l.2-.66Z"/>
      <path class="cls-4" d="m21.87,8.41c-.29.14-.87.29-1.61.29-1.72,0-3.02-1.08-3.02-3.06s1.3-3.18,3.19-3.18c.76,0,1.24.16,1.45.27l-.19.64c-.3-.14-.73-.25-1.23-.25-1.43,0-2.38.91-2.38,2.49,0,1.48.86,2.43,2.35,2.43.48,0,.97-.1,1.29-.25l.16.62Z"/>
      <path class="cls-4" d="m23.99,2.56v6.05h-.79V2.56h.79Z"/>
      <path class="cls-4" d="m28.88,5.78h-2.37v2.18h2.65v.66h-3.44V2.56h3.3v.65h-2.51v1.91h2.37v.65Z"/>
      <path class="cls-4" d="m30.52,8.61V2.56h.86l1.96,3.06c.45.71.81,1.35,1.1,1.96h.02c-.07-.82-.09-1.55-.09-2.49v-2.53h.74v6.05h-.8l-1.94-3.07c-.43-.67-.83-1.36-1.14-2.02h-.03c.05.77.06,1.5.06,2.5v2.58h-.74Z"/>
      <path class="cls-4" d="m37.99,3.23h-1.86v-.66h4.52v.66h-1.87v5.38h-.8V3.23Z"/>
      <path class="cls-4" d="m42.46,2.56v6.05h-.79V2.56h.79Z"/>
      <path class="cls-4" d="m44.19,2.56h3.29v.65h-2.5v2.01h2.31v.65h-2.31v2.74h-.79V2.56Z"/>
      <path class="cls-4" d="m49.73,2.56v6.05h-.79V2.56h.79Z"/>
      <path class="cls-4" d="m55.72,8.41c-.29.14-.87.29-1.61.29-1.72,0-3.02-1.08-3.02-3.06s1.3-3.18,3.19-3.18c.76,0,1.24.16,1.45.27l-.19.64c-.3-.14-.73-.25-1.23-.25-1.43,0-2.38.91-2.38,2.49,0,1.48.86,2.43,2.35,2.43.48,0,.97-.1,1.29-.25l.16.62Z"/>
    </g>
  </g>
  <g id="Layer_3" data-name="Layer 3">
    <path class="cls-2" d="m63.95,8.35h.77s.02-.46.02-.46c0,0-.2-.19-.19-.22s.15-.2.17-.15.04.33.04.33h.94s0,.21-.03.27-.16.18-.19.22.11.13.11.13l.44-.03s-.02-.57.01-.59.29,0,.34,0,.22-.07.17.2-.07.33,0,.36.91-.01.91-.01c0,0,.19-.11-.01-.39s-.43-.4-.53-.59-.38-.67-.44-.89-.21-.55-.15-.61.39-.2.49.09.28.63.39.87.19.31.31.48.18.28.18.44.12.33.17.45.36.2.53.18.38-.06.38-.06c0,0-.02-.38-.12-.59s-.24-.72-.25-.83-.04-.95-.04-1.03-.07-.22.17-.31.3-.41.33-.44.41-.15.41-.06-.22.41-.36.59-.25.42-.16.62.29.58.38.68.17.3.21.38.22.33.35.14.07-.47.38-.53.69-.15.66-.39-.09-.52-.31-.73-.42-.4-.42-.57.02-.52-.02-.59-.14-.49-.49-.2-.51.37-.64.34-.3-.42-.32-.56,0-.49-.13-.62-.25.11-.29-.31.22-.32.22-.62-.01-1.45.01-1.57-.04-.44.12-.49.32-.08.41.2-.07.46-.13.57-.15.71-.09.78.26.03.2.25-.26.38-.26.55.21.97.46,1.1.5.31.51.12-.02-.62.05-.68.28.08.34.2.29.28.3.14.13-.63.01-.9-.12-.5-.07-.57.35.22.46.48.96,1.1,1.04,1.04.11-.18.03-.38-.34-.52.03-.36.73.22.87.19.55.09.46-.17-.57-.57-.94-.61-.62.2-.94-.04-2.44-2.58-2.46-2.58-.94,0-.94,0l-6.17,5.87s-.54.28-.64.22-.17.52-.18.64-.2.3-.38,0-.28-.48-.41-.46-.53-.01-.53-.01c0,0-1.46,1.66-1.46,1.76s-.01.44-.01.44c0,0,1.49.02,1.53-.02s.07-.73.11-.8.24-.12.28.05,0,.51.14.67.65.09.65.09c0,0-.05-.15-.04-.37s-.08-.3-.09-.39.41-.13.41-.13c0,0-.02-.1.07-.24s.4-.27.35-.08-.23.23-.26.41.06.43.06.43c0,0,.07.26.13.3s.73.02.73.02l.02-.53s.21.06.34.03.21-.34.22-.5.09-.12.37-.22.21-.36.22-.54.06-.34.34-.17.29.4.24.62-.01,1.18-.01,1.18l.09.08Z"/>
    <path class="cls-2" d="m70.15,8.41c.15.01,1.28,0,1.28,0,0,0-.56-.86-.59-.88s-.69.88-.69.88Z"/>
    <path class="cls-2" d="m71.76,8.44c.1,0,1.16.01,1.18-.03s-.2-.49-.26-.62.06-.46.14-.46.52.52.54.65.36.39.36.39l.69-.03-.17-.42s.36.05,0-.03-.5-.27-.52-.31-.83-.94-.83-.94c0,0-.15-.36-.09-.41s.25-.16.33-.26-.14-.11.18-.26.69.22.82.39.67.52.81.63.12.29.44.29.54-.09.62.12.04.54.03.6-.34.28-.38.4-.22.3-.08.3h1.18s-.03-.53-.09-.62-.12-.28-.06-.38.52.33.62.4.76.58.76.58h.49s-.02-.37-.07-.41-3.79-3.82-3.79-3.82c0,0-.16-.04-.22.12s-.17.38-.17.38c0,0-.65-.74-.86-.75s-.61.26-.61.26c0,0-.39.71-.41.75s.13.42.32.53-.06.57-.06.57l-.67.04s-.41.38-.5.45-.24.3-.2.43.08.37.18.22.6-.46.67-.5.36-.04.38-.02.23-.1.09.22-.69,1.23-.75,1.28,0,.26,0,.26Z"/>
    <path class="cls-1" d="m58.87,8.04l.23-.17.22-.08.04-.52s.09-.24.07-.24-.36.38-.38.42-.17.6-.17.6Z"/>
    <path class="cls-1" d="m61.85,6.96s-.03-.04-.04-.18.1-.38.1-.38c0,0,.16.05.16.2s.03.24-.02.27-.2.09-.2.09Z"/>
    <path class="cls-1" d="m63.06,5.08s.36,0,.39.04,0,.34.09.36.44-.04.48-.06.29-.19.16-.32-.33-.2-.3-.29-.04-.26.16-.26.29.11.29.29.12.15.18.13.46-.39.47-.51.11-.48.05-.52-.14,0-.25.12-.33.22-.42.15.16-.41-.24-.18-.87.69-.89.78-.17.28-.17.28Z"/>
    <path class="cls-1" d="m64.47,7.65s-.2-.68-.04-.96.53-.32.69-.36.53-.04.39.2-.43.52-.46.55-.52.71-.58.56Z"/>
    <path class="cls-1" d="m66.02,2.19s-.67.9-.89,1.06-.88.67-.22.51.86-.95.98-1.07.39-.44.33-.48-.2-.02-.2-.02Z"/>
    <path class="cls-1" d="m66.78,2.57c-.07.16-.28.13-.37.23s-.01.28-.01.28c0,0,.48.13.5-.07s-.07-.24.04-.27.48-.04.5-.14.09-.38-.04-.42-.61.38-.61.38Z"/>
    <path class="cls-1" d="m67.42,4.88c.19.34.29.56.48.7s.14.45.3.11.07-.51.02-.63-.07-.37-.25-.26-.44-.03-.46-.08-.09.16-.09.16Z"/>
  </g>
</svg>
